<svg id="e8DNzJuOIyd1" xmlns="http://www.w3.org/2000/svg" xmlns:xlink="http://www.w3.org/1999/xlink" viewBox="0 0 1346 472" shape-rendering="geometricPrecision" text-rendering="geometricPrecision"><path d="M922.213,333.153c-8.244-31.297-27.411-54.023-56.355-68.117-20.803-10.125-42.936-13.132-65.805-11.475-20.374,1.473-39.643,6.914-56.662,18.369-31.89,21.417-47.109,52.121-47.846,87.734.307,12.927,1.289,23.032,3.989,32.933c6.301,23.156,18.942,41.913,38.109,56.171c16.569,12.293,35.286,18.696,55.598,21.253c19.801,2.516,39.172,1.002,58.278-4.766c24.608-7.446,44.409-21.683,58.155-43.57c17.244-27.452,20.721-57.439,12.539-88.532ZM812.039,396.136c-23.851,0-43.181-8.796-43.181-31.972s19.33-31.972,43.181-31.972c23.852,0,43.182,8.734,43.182,31.972c0,23.237-19.33,31.972-43.182,31.972Z" fill="#fff6f6"/><path d="M1160.8,411.314c0-12.56-.04-25.122.04-37.679.01-1.43-.32-3.496,1.63-4.263c2.01-.624,3.51-.411,5.32,1.462c3.51,3.643,7.44,6.82,11.51,9.846c21.91,16.319,46.73,22.562,73.71,21.292c3.61-.17,7.18-.857,10.46-2.492c2-.996,3.88-2.281,3.79-4.792-.1-2.496-2.34-3.171-4.21-3.793-7.29-2.428-14.94-3.187-22.48-4.431-15.81-2.612-31.55-5.617-46.3-12.203-17.77-7.935-30.93-20.041-35.23-39.85-5.61-25.89,5.51-50.547,28.66-64.171c19.27-11.33,40.4-15.261,62.32-15.261c28.15,0,54.91,6.459,80.21,18.898c2.71,1.338,3.62,2.909,3.6,5.92-.13,21.654-.04,43.311-.12,64.965-.01,1.55.18,4.095-1.1,4.578-1.93.669-3.84.01-5.58-1.44-9.96-8.311-21.23-14.366-33.35-18.883-18.08-6.742-36.73-9.894-56.07-8.45-2.89.217-5.73.792-8.39,1.956-2.46,1.073-4.64,2.577-4.63,5.658.01,3.076,2.48,4.035,4.78,4.899c7.48,2.825,15.41,3.635,23.25,4.856c17.96,2.804,35.96,5.437,53.08,11.962c12.88,4.912,24.76,11.38,32.54,23.276c9.47,14.505,9.19,30.373,4.92,46.277-6.04,22.481-22.19,35.408-43.13,43.159-20.53,7.591-41.96,9.158-63.6,8.493-21.19-.65-41.91-4.136-61.76-11.905-3.75-1.471-7.36-3.338-11.13-4.748-2.34-.873-2.82-2.278-2.8-4.59.11-12.848.05-25.698.05-38.546h.01Z" fill="#fff6f6"/><path d="M455.535,259.442c-8.28,0-9.473-.579-9.459,3.899.115,33.209.07,66.421.07,99.63c0,33.355.041,66.71-.068,100.064-.01,3.118.585,4.137,3.991,4.112c24.436-.174,48.872-.158,73.307-.014c3.199.018,4.07-.7,4.048-3.987-.141-20.646-.209-41.298.075-61.941.164-11.854,1.647-23.608,5.933-34.795c4.177-10.903,10.532-20.135,22.184-23.894c11.796-3.809,23.141-2.702,32.988,5.674c1.651,1.405,2.678,1.7,4.445,1.082c1.794-.628,1.692-2.522,1.7-3.829.069-11.118.061-68.876.002-86.635-.006-1.59.423-4.016-2.322-3.883-18.436.571-34.6,5.941-46.346,21.174-9.925,12.868-17.229,27.733-21.102,43.173l-5.007,19.38c-.246.945-1.099,1.607-2.074,1.607-1.324,0-2.33-1.186-2.115-2.491l12.297-74.638c.487-4.273-.54-3.676-9.113-3.676l-63.432-.008h.002l-.004-.004Z" fill="#fff6f6"/><path d="M687.361,316.198c-.008,48.762-.016,97.523.1,146.285.011,3.866-1,4.691-4.741,4.664-24.436-.182-48.873-.172-73.309-.006-3.541.024-4.557-.741-4.537-4.427.168-29.456.094-58.912.096-88.369c0-19.773-.004-39.545.007-59.315v-56.699c0-1.882,1.526-3.406,3.405-3.406h75.667c1.884,0,3.41,1.528,3.406,3.412l-.094,57.865v-.004Z" fill="#fff6f6"/><path d="M360.169,380.553c-.863.006-1.589.634-1.728,1.485-2.809,17.311-6.515,34.414-13.665,50.578-12.788,28.912-33.199,40.647-65.351,38.195-26.987-2.06-43.871-16.962-51.67-43.726-3.742-12.836-5.777-25.972-5.881-39.25-.326-41.877-.191-83.757-.311-125.636-.006-2.383.554-3.168,3.068-3.16c25.017.092,50.036.127,75.053-.029c3.412-.02,3.222,1.657,3.228,3.969.062,28.736.137,57.473.297,86.209.037,6.657,1.08,13.221,2.778,19.656c3.436,13.018,14.024,19.482,27.087,16.522c6.632-1.504,10.688-6.065,13.353-11.967c5.145-11.391,6.354-23.611,7.084-35.868c1.471-24.672.571-49.374.655-74.063.012-3.59.842-4.497,4.467-4.468c23.714.182,47.432.205,71.146-.01c4.321-.039,5.732.785,5.697,5.468-.233,32.925-.125,65.85-.125,98.775c0,33.214-.051,66.429.078,99.643.012,3.365-.824,4.279-4.24,4.257-24.584-.156-51.685-.158-76.267,0-3.483.022-4.312-.874-3.919-4.265c3.615-31.185,10.179-72.535,10.844-79.374.081-.853-.137-1.722-.692-2.377-.274-.323-.607-.574-.986-.57v.006Z" fill="#fff6f6"/><path d="M1073.87,380.553c-.87.006-1.6.634-1.74,1.485-2.81,17.311-6.51,34.414-13.66,50.578-11.92,26.938-29.55,36.834-58.743,38.062-5.793.243-11.623-.156-17.273-1.465-20.838-4.83-34.292-19.081-41.009-42.126-3.741-12.836-5.777-25.972-5.881-39.25-.325-41.877-.19-83.757-.311-125.636-.006-2.383.554-3.168,3.068-3.16c25.017.092,50.036.127,75.049-.029c3.42-.02,3.23,1.657,3.23,3.969.06,28.736.14,57.474.3,86.209.04,6.657,1.08,13.221,2.78,19.656c3.43,13.018,14.02,19.482,27.08,16.522c6.64-1.503,10.69-6.065,13.36-11.966c5.14-11.392,6.35-23.612,7.09-35.869c1.47-24.672.57-49.374.65-74.063.01-3.59.84-4.497,4.46-4.468c23.72.182,47.44.205,71.15-.01c4.32-.039,5.74.785,5.7,5.468-.23,32.925-.13,65.85-.13,98.775c0,33.214-.05,66.429.08,99.643.01,3.365-.83,4.279-4.24,4.257-24.58-.156-49.17-.158-73.75,0-3.48.022-4.31-.874-3.92-4.265c3.61-31.185,7.67-72.535,8.33-79.374.09-.853-.14-1.722-.69-2.377-.27-.323-.61-.574-.98-.57v.004Z" fill="#fff6f6"/><path d="M397.891,244.636c-3.275.006-4.324-.675-4.32-4.179.111-78.113.108-156.2246.01-234.34006-.004-2.34829,1.901-4.25065,4.249-4.24451c58.994.10841,117.987.11455,176.981-.01228c3.537-.00818,4.177,1.06164,4.152,4.3018-.145,19.63525-.219,39.27455.047,58.90775.056,4.0706-1.272,4.5575-4.817,4.5411-30.667-.1309-65.5-.0389-96.358-.137-1.182-.0041-2.135.9491-2.141,2.1314l-.013,2.0088c0,6.8321.08,8.1862.095,15.0266.002,1.1823.959,2.1417,2.141,2.1396c3.267-.0061,9.555-.0143,13.669-.0102c24.867.0245,49.737.09,74.605-.0757c3.651-.0245,4.557,1.0044,4.521,4.5718-.182,18.1909-.185,36.3859.004,54.5749.036,3.56-1.146,4.239-4.421,4.224-24.129-.118-48.256-.043-72.386-.085l-16.155.012c-1.191,0-2.152.969-2.142,2.16l.133,18.688c.008,1.176.955,2.125,2.131,2.129c6.436.021,14.675.009,20.648.009h74.706c3.193,0,5.782,2.589,5.782,5.782v56.089c0,3.193-2.589,5.783-5.782,5.783h-175.337l-.002.004Z" fill="#fff6f6"/><path d="M475.775999,197.277866l.000001,38.546c0,3.193,3.029,8.808134-.164,8.808134h-77.719l-.002.004c-3.275.006-4.324-.675-4.32-4.179.111-78.113.108-156.2246.01-234.34006-.004-2.34829,1.901-4.25065,4.249-4.24451c58.994.10841,117.987.11455,176.981-.01228c3.537-.00818,4.177,1.06164,4.152,4.3018-.145,19.63525-.219,39.27455.047,58.90775.056,4.0706-1.272,4.5575-4.817,4.5411-30.667-.1309-65.5-.0389-96.358-.137-1.182-.0041-2.135.9491-2.141,2.1314l-.013,2.0088c0,6.8321.08,8.1862.095,15.0266.002,1.1823.959,2.1417,2.141,2.1396c3.267-.0061,9.555-.0143,13.669-.0102c24.867.0245,49.737.09,74.605-.0757c3.651-.0245,4.557,1.0044,4.521,4.5718-.182,18.1909-.185,36.3859.004,54.5749.036,3.56-1.146,4.239-4.421,4.224-24.129-.118-48.256-.043-72.386-.085l-16.155.012c-1.191,0-2.152.969-2.142,2.16l.133,18.688" transform="matrix(1.106391 0 0 1-419.050665 214.036134)" fill="#fff6f6"/><path d="M948.351,227.535c.024,3.222-2.009,4.601-4.026,6.135-11.463,8.735-24.657,12.676-38.849,13.689-12.951.924-25.619-.299-37.663-5.529-16.46-7.147-26.887-19.74-32.667-36.438-3.189-9.215-4.38-18.761-4.408-28.466-.039-13.856-.011-27.715-.011-41.571c0-15.589-.124-31.181.094-46.7676.052-3.5613-1.088-4.357-4.359-4.1791-4.756.2578-9.538-.0327-14.304.1043-2.751.0798-3.913-.5195-3.529-4.4756l-.033-38.2273c-.243-3.3547.727-3.819,3.243-3.8783c6.94-.1637,13.866-.8694,20.382-3.3956c12.803-4.9605,17.743-15.403,18.291-28.17544.194-4.50839,1.284-5.668215,5.764-5.598666c17.486.274106,34.979.202509,52.467.030683c3.238-.032729,4.152.765033,4.046,4.001093-.178,5.39413-.164,16.18643-.164,16.18643.454,14.5541-1.7,14.5541,8.495,14.5541c7.949,0,10.621.1166,18.566-.0634c2.685-.0614,3.798.718,3.778,3.369-.121,16.166-.203,27.2529-.119,43.4188.014,2.7431-.184,3.7189-3.659,3.7189l-22.636-.0205c-3.073,0-4.47.0716-4.437,3.7843.188,21.2169.082,42.4369.098,63.6559.002,3.614.327,7.214,1.458,10.665c1.803,5.503,4.902,9.788,11.038,10.944c5.4,1.014,10.302.405,14.358-2.88c1.057-.857,2.653-.16,2.8,1.196l5.979,54.211.007.002Z" fill="#fff6f6"/><path d="M807.621,176.26c-.245-15.751.634-34.959-.491-54.146-1.104-18.819-6.689-36.2063-18.082-51.4456-17.224-23.0534-41.28-34.3039-68.936-38.1291-36.472-5.032-71.594,1.0433-105.468,15.178-3.109,1.3092-3.846,2.9456-3.825,6.0753.123,23.2579.041,46.4954.102,69.7534c0,1.514-.839,3.641.716,4.418c1.821.88,3.866.143,5.666-1.104c17.796-12.069,37.495-19.106,58.789-21.335c13.133-1.371,26.306-.941,38.845,4.132c4.746,1.922,8.858,4.766,11.66,9.266.757,1.207,1.166,2.536.593,3.661-.47.88-2.045.369-3.109.225-14.933-2.168-29.947-2.761-44.982-1.902-15.771.921-31.297,3.416-46.045,9.369-25.672,10.33-41.341,27.962-42.323,56.866-.777,23.278,9.921,42.568,30.009,52.284c9.348,4.541,19.33,6.648,29.64,7.344c35.858,2.373,63.535-12.355,76.34-47.355c3.17-8.693,5.154-17.571,6.443-26.592.082-.552.552-.961,1.125-.961l.982.02c.675,0,1.186.573,1.105,1.248l-7.528,66.214c-.143,2.782.634,3.621,3.518,3.601c23.851-.123,47.723-.123,71.574.02c3.15.021,3.764-1.002,3.743-3.907-.122-19.78-.061-39.561-.061-62.798Zm-86.649-23.074c-1.862,12.866-6.301,24.24-18.001,31.44-7.671,4.725-15.976,5.666-24.547,3.457-5.768-1.473-10.432-4.705-11.639-10.903-1.371-6.893.941-12.846,6.321-17.367c6.218-5.216,13.848-6.852,21.642-7.814c3.989-.49,8.059-.531,10.555-.695c5.441,0,9.327,0,13.234.02c1.228,0,2.741-.327,2.435,1.862Z" fill="#fff6f6"/></svg>
