<svg version="1.2" xmlns="http://www.w3.org/2000/svg" viewBox="0 0 197 196" width="197" height="196">
	<title>flower1-svgrepo-com-svg</title>
	<style>
		.s0 { fill: #000000 } 
	</style>
	<g id="Layer_2">
		<g id="Layer_1-2">
			<path id="Layer" fill-rule="evenodd" class="s0" d="m121.8 42.4c6.7-3.8 13.6-4.1 20.5-3.4 12.7 1.3 22.7 7.2 29.1 18.6 4.2 7.7 3.8 15.5 0.6 23.2-1.8 4.4-4.6 8.5-7.2 13.1q0.4 0.4 0.9 0.7 0.5 0.4 1 0.7 0.5 0.3 1 0.6 0.5 0.3 1 0.5c8.6 3.5 13.5 10.4 16.4 18.8q1.2 3.4 2 7 0.7 3.6 0.9 7.3 0.3 3.6 0 7.3-0.3 3.6-1 7.2-0.3 2-1.1 3.9-0.7 1.9-1.8 3.6-1.1 1.8-2.5 3.2-1.4 1.5-3.1 2.7c-6.5 4.7-13.5 7.4-21.5 7.3-2.9 0-5.7 0-8 0-2.3 1.5-2 3.3-2.3 5-1 6.1-4.4 11.2-8.2 15.8-8.7 10.2-26.1 12.8-37.7 6.1-3.7-2.1-5.6-5.7-8.1-8.7q-0.6-0.9-1.3-1.8-0.6-0.9-1.2-1.9-0.6-0.9-1.2-1.8-0.5-1-1.1-1.9-0.4 0.1-0.8 0.2-0.4 0.1-0.9 0.2-0.4 0.1-0.8 0.3-0.4 0.2-0.8 0.3c-6.3 4.2-13.4 6.4-20.5 8.7-12.3 4.1-24 0-31.7-10.5q-1.4-1.9-2.5-4-1.1-2.1-2-4.3-0.9-2.2-1.6-4.4-0.6-2.3-1-4.6-0.5-2.9-0.5-5.8 0-2.9 0.5-5.8 0.6-2.8 1.7-5.5 1-2.7 2.6-5.2c1.6-2.7 3.5-5.2 5.6-8.3q-0.4-0.4-0.8-0.8-0.5-0.4-0.9-0.8-0.5-0.3-1-0.7-0.5-0.3-0.9-0.7c-3.5-2-7-3.8-10.6-5.7-7.5-4-11.2-10.3-11.9-18.7q-0.2-3 0-6 0.2-3 0.9-6 0.7-2.9 1.8-5.7 1.1-2.8 2.7-5.4 1.4-2.4 3.3-4.5 1.9-2 4.3-3.6 2.3-1.5 4.9-2.6 2.6-1 5.4-1.4c3.9-0.7 7.9-1 11.7-1.5 0.3-0.8 0.7-1.3 0.6-1.7-3.2-9.2-3.2-18.6-2.4-28q0.3-2.6 0.8-5.1 0.6-2.5 1.5-4.9 0.8-2.5 2-4.8 1.2-2.3 2.7-4.4c4.3-6.4 11.2-9.8 18.3-12.1q2.9-0.9 5.9-1.3 3-0.4 6-0.4 3 0 6 0.5 3 0.5 5.8 1.5c14.6 4.6 23.4 14.9 26.7 29.8 0.7 3.3 1.3 6.7 3.8 10.6zm-24.8 119.5c0.8 8.7 5.3 15.3 10.4 21.6q0.5 0.5 1.1 1 0.6 0.4 1.2 0.8 0.6 0.4 1.3 0.7 0.7 0.3 1.4 0.5c7.9 2.2 12.3 0.5 16.8-6.4q0.4-0.5 0.7-1 0.4-0.6 0.7-1.1 0.3-0.6 0.6-1.2 0.3-0.5 0.6-1.1c2.8-5.5 4.5-11.2 1.8-17.3q-0.1-0.3-0.2-0.6-0.1-0.3-0.1-0.6-0.1-0.4-0.1-0.7 0-0.3 0-0.6c-0.1-1.9 1.3-3.6 3.1-3.4 3.1 0.4 6.4 0.6 9.1 1.9 5 2.5 9.8 2.6 15 1.6 7.9-1.5 12.9-6.3 14.2-14q0.3-1.1 0.4-2.1 0.2-1.1 0.4-2.1 0.1-1.1 0.2-2.2 0.2-1 0.2-2.1c0.7-10.1-1.7-19.3-9.1-26.8q-0.9-0.9-1.9-1.7-1-0.8-2.1-1.4-1.2-0.6-2.4-1-1.2-0.4-2.5-0.5-0.9-0.1-1.7-0.3-0.8-0.1-1.7-0.3-0.8-0.1-1.6-0.3-0.9-0.2-1.7-0.5-0.7-0.2-1.3-0.7-0.6-0.5-0.9-1.2-0.3-0.7-0.4-1.4 0-0.8 0.3-1.5 0.2-0.5 0.4-1 0.3-0.5 0.5-0.9 0.3-0.5 0.6-0.9 0.3-0.5 0.6-0.9c1.6-2 3.6-3.7 5.1-5.8 4-5.4 6.6-11.6 6-18.3-1.4-16.5-19.4-25.8-34-17.7q-1.2 0.7-2.3 1.5-1.2 0.7-2.3 1.5-1.2 0.8-2.3 1.6-1.1 0.8-2.2 1.7-0.4 0.3-0.7 0.5-0.3 0.3-0.6 0.6-0.4 0.2-0.7 0.5-0.4 0.2-0.7 0.5c-0.8 0.4-1.6 0.6-2.5 0.6-0.8 0-1.7-0.2-2.4-0.6-0.8-0.4-1.4-1-1.9-1.8-0.4-0.7-0.7-1.5-0.7-2.4-0.2-1.7 0-3.4 0-5.2q0-3.2-0.4-6.4-0.3-3.2-1.1-6.3-0.7-3.2-1.8-6.2-1.1-3-2.6-5.9c-4.7-9.2-11.8-15.2-22.9-15.4-5.5-0.1-9.8 2.8-14.3 5.3-7.1 3.9-10.7 9.9-11.7 17.9q-0.3 2.4-0.3 4.9-0.1 2.5 0 4.9 0.1 2.5 0.5 4.9 0.3 2.5 0.8 4.9c1.2 5.5 2.8 11 4.3 16.8q-1 1.1-2.3 1.9-1.2 0.9-2.6 1.4-1.4 0.5-2.9 0.7-1.4 0.1-2.9 0-1.1-0.2-2.1-0.3-1.1-0.1-2.2-0.2-1.1 0-2.1-0.1-1.1 0-2.2 0c-7.7 0.5-13.4 4-16.4 11.5q-0.6 1.5-1 3.1-0.5 1.5-0.8 3.1-0.2 1.6-0.3 3.2-0.2 1.6-0.1 3.2c0 6.2 2.4 11.2 7.8 14.4 6.1 3.7 12 7.9 18.8 10.1 1.6 0.5 2.8 1.7 4 2.5-0.2 4.1-2.8 5.8-5.3 7.8-15.3 11.8-10.6 35.6 2.4 44.7q1.2 1 2.6 1.6 1.4 0.6 2.8 0.9 1.5 0.3 3 0.2 1.6 0 3-0.4c9.7-2.8 19.4-5.6 24.7-15.5 1.7-3.2 5-3.5 8.3-2.5q0.4 0.2 0.9 0.4 0.5 0.2 0.9 0.5 0.5 0.2 0.9 0.4 0.5 0.2 0.9 0.5z"/>
			<path id="Layer" fill-rule="evenodd" class="s0" d="m101.7 84.2c8.2-0.8 15 3 21.2 7.7 3.7 2.9 4.6 7.3 4.4 11.7q-0.1 1.9-0.4 3.8-0.2 1.9-0.7 3.8-0.5 1.9-1.2 3.7-0.6 1.8-1.5 3.5c-3.7 8.2-10.4 12.3-19 12.5q-1.8 0-3.6-0.1-1.8-0.2-3.6-0.5-1.8-0.3-3.5-0.8-1.8-0.5-3.5-1.1c-9.7-3.5-12.9-10.7-12.5-20.2q0.1-1.9 0.4-3.8 0.4-1.9 0.9-3.8 0.6-1.9 1.3-3.6 0.8-1.8 1.7-3.5c3-5.7 7.8-9 14.4-9.3 1.7-0.1 3.5 0 5.2 0zm-12.1 23.4c0.4 1.8 0.7 5 1.9 7.8 2.8 6.8 9 8.6 15.4 4.9 5.2-3 6.9-8 8-13.4 1.3-6.7-1.1-11.4-7.6-13.1-12.6-3.2-16.2-1.3-17.7 13.8z"/>
		</g>
	</g>
</svg>